<svg xmlns="http://www.w3.org/2000/svg" width="360" height="386" viewBox="0 0 360 386" version="1.1"><path d="M 134.269 128.693 C 135.242 128.947, 136.592 128.930, 137.269 128.656 C 137.946 128.382, 137.150 128.175, 135.500 128.195 C 133.850 128.215, 133.296 128.439, 134.269 128.693 M 131.055 139.945 C 130.260 140.448, 127.522 140.612, 124.971 140.310 C 120.782 139.814, 120.124 140.027, 118.167 142.515 C 114.294 147.438, 115.765 151.644, 123.256 157.071 C 128.576 160.924, 130.861 160.767, 135.179 156.250 C 141.760 149.365, 142.773 144.540, 138.365 141.073 C 135.523 138.837, 133.339 138.500, 131.055 139.945 M 208.856 140.493 C 206.365 141.868, 204 146.417, 204 149.833 C 204 153.559, 208.378 160.045, 213.506 163.917 C 216.481 166.163, 219.574 168, 220.380 168 C 221.884 168, 229.832 159.222, 231.864 155.316 C 233.723 151.742, 233.268 145.268, 231 143 C 228.882 140.882, 223.601 140.334, 221.023 141.965 C 220.035 142.589, 219.041 142.445, 218.023 141.527 C 215.603 139.348, 211.722 138.910, 208.856 140.493 M 74.544 146.344 C 73.175 147.345, 72.879 148.382, 73.386 150.400 C 74.008 152.882, 74.424 153.086, 78.283 152.806 C 81.815 152.550, 82.553 152.126, 82.827 150.195 C 83.474 145.628, 78.613 143.369, 74.544 146.344 M 156.383 153.583 C 147.115 158.156, 150.315 174.712, 161.826 181.745 C 164.782 183.551, 166.965 183.986, 173 183.973 C 181.796 183.953, 187.221 181.903, 191.298 177.058 C 194.502 173.250, 193.950 171.634, 189.663 172.263 C 185.128 172.928, 180.771 171.414, 177.552 168.054 C 174.796 165.178, 174.632 165.139, 171.693 166.659 C 167.371 168.893, 159.224 167.995, 156.814 165.018 C 154.542 162.213, 154.480 159.137, 156.678 158.293 C 157.778 157.871, 158.852 158.398, 159.800 159.825 C 160.899 161.481, 162.241 162, 165.422 162 C 170.243 162, 172 160.665, 172 157.001 C 172 152.490, 162.717 150.459, 156.383 153.583 M 181.313 154.559 C 178.357 155.853, 178.191 156.179, 179.021 159.074 C 179.907 162.162, 181.565 164.813, 183.500 166.235 C 186.216 168.230, 195 165.981, 195 163.290 C 195 160.984, 192.154 156.221, 189.783 154.561 C 187.129 152.701, 185.556 152.701, 181.313 154.559 M 290.750 153.662 C 291.438 153.940, 292.563 153.940, 293.250 153.662 C 293.938 153.385, 293.375 153.158, 292 153.158 C 290.625 153.158, 290.063 153.385, 290.750 153.662 M 62.750 188.080 C 60.339 189.484, 60.520 193.673, 63.049 195.026 C 65.973 196.591, 70.046 195.844, 71.623 193.454 C 74.508 189.082, 67.900 185.080, 62.750 188.080 M 102.223 204.557 C 97.438 207.908, 100.940 214, 107.651 214 C 112.185 214, 114.595 211.363, 114.049 207 C 113.565 203.130, 106.378 201.646, 102.223 204.557 M 126.195 215.500 C 126.215 217.150, 126.439 217.704, 126.693 216.731 C 126.947 215.758, 126.930 214.408, 126.656 213.731 C 126.382 213.054, 126.175 213.850, 126.195 215.500 M 181.858 217.048 C 173.971 218.140, 169.310 219.739, 170.587 220.914 C 171.089 221.376, 173.968 222.556, 176.986 223.536 C 180.003 224.516, 183.674 226.521, 185.145 227.991 C 190.456 233.303, 191.269 242.845, 186.885 248.419 C 184.193 251.842, 180.840 253.494, 173.500 255.015 C 167.984 256.157, 167.702 256.341, 170 257.289 C 174.246 259.042, 192.770 258.646, 199.153 256.667 C 205.904 254.574, 212.728 247.930, 216.542 239.737 C 221.071 230.010, 218.849 222.590, 210.269 218.795 C 204.810 216.380, 192.259 215.608, 181.858 217.048 M 80.158 246 C 80.158 247.375, 80.385 247.938, 80.662 247.250 C 80.940 246.563, 80.940 245.438, 80.662 244.750 C 80.385 244.063, 80.158 244.625, 80.158 246 M 110.762 280.707 C 112.006 280.946, 113.806 280.937, 114.762 280.687 C 115.718 280.437, 114.700 280.241, 112.500 280.252 C 110.300 280.263, 109.518 280.468, 110.762 280.707 M 109.250 286.689 C 110.213 286.941, 111.787 286.941, 112.750 286.689 C 113.713 286.438, 112.925 286.232, 111 286.232 C 109.075 286.232, 108.287 286.438, 109.250 286.689 M 122.355 343.500 C 122.352 348.450, 122.521 350.601, 122.731 348.280 C 122.940 345.959, 122.943 341.909, 122.736 339.280 C 122.530 336.651, 122.358 338.550, 122.355 343.500 M 129.158 345 C 129.158 346.375, 129.385 346.938, 129.662 346.250 C 129.940 345.563, 129.940 344.438, 129.662 343.750 C 129.385 343.063, 129.158 343.625, 129.158 345 M 279.250 373.689 C 280.212 373.941, 281.788 373.941, 282.750 373.689 C 283.712 373.438, 282.925 373.232, 281 373.232 C 279.075 373.232, 278.288 373.438, 279.250 373.689" stroke="none" fill="#f0b2b3" fill-rule="evenodd"/><path d="M 164.500 41.396 C 161.750 42.070, 155.675 44.316, 151 46.386 C 146.325 48.456, 138.225 51.754, 133 53.715 C 122.952 57.486, 119.509 59.440, 114.255 64.350 L 111.009 67.383 108.255 64.745 C 100.435 57.255, 84.851 56.942, 78.055 64.140 C 72.398 70.130, 69.480 80.362, 71.165 88.293 C 73.047 97.144, 82.205 105.519, 92 107.344 L 95.500 107.997 95.587 123.248 C 95.686 140.594, 97.395 148.873, 103.489 161.545 C 108.044 171.014, 114.866 178.360, 126.368 186.181 L 135.661 192.500 132.365 197 C 128.195 202.692, 126.607 209.644, 127.187 219.661 C 127.669 227.989, 131.035 237.280, 135.163 241.673 C 138.056 244.753, 136.713 246, 130.504 246 L 125.127 246 122.313 240.763 C 117.941 232.625, 113.321 230.500, 100 230.500 C 88.399 230.500, 85.249 231.685, 82.449 237.099 C 80.559 240.754, 80.589 252.633, 82.511 260.781 C 85.210 272.233, 89.962 279.355, 97.500 283.250 C 105.175 287.215, 122.075 286.619, 135.792 281.900 L 141.136 280.061 145.050 282.531 C 153.931 288.138, 171.089 292, 187.115 292 C 201.191 292, 218.704 287.209, 227.365 280.990 L 231.628 277.928 238.564 282.594 C 248.884 289.537, 253.387 291.258, 261.569 291.388 C 267.802 291.487, 269.222 291.140, 273.569 288.461 C 283.649 282.249, 289.199 263.817, 283.784 254.530 C 280.799 249.408, 275.721 245.997, 271.102 246.010 C 269.121 246.015, 265.025 247.173, 262 248.582 C 255.185 251.758, 253.656 251.501, 240.151 244.915 C 232.027 240.953, 229.916 239.505, 230.334 238.184 C 230.628 237.258, 231.569 234.591, 232.426 232.258 C 234.481 226.665, 235.366 215.650, 234.223 209.885 L 233.309 205.271 254.904 204.695 C 283.035 203.945, 292.675 201.882, 302.526 194.506 C 306.423 191.588, 310.636 183.776, 311.511 177.847 C 312.474 171.326, 310.004 163.345, 305.791 159.355 C 301.049 154.866, 298.855 154, 292.221 154 C 285.732 154, 283.977 154.951, 266.500 167.942 C 257.450 174.669, 243.936 182.098, 235.421 185.027 C 232.267 186.112, 229.333 187, 228.900 187 C 228.467 187, 230.403 184.637, 233.201 181.750 C 244.958 169.620, 258.548 144.748, 260.399 131.975 C 261.025 127.654, 261.271 127.373, 265.845 125.749 C 290.106 117.132, 294.191 89.860, 273.957 71.580 C 265.668 64.092, 255.534 61.540, 245.578 64.434 L 239.822 66.108 235.161 61.776 C 226.377 53.613, 206.382 45.046, 187.956 41.551 C 178.394 39.737, 171.452 39.691, 164.500 41.396 M 163 47.930 C 159.975 48.933, 154.800 50.987, 151.500 52.495 C 148.200 54.004, 141.450 56.880, 136.500 58.888 C 115.305 67.486, 108.770 75.513, 104.067 98.727 C 100.957 114.077, 100.509 124.888, 102.502 136.500 C 105.499 153.969, 110.523 164.621, 119.733 173.039 C 130.283 182.681, 148.185 193.076, 157.568 195.008 C 180.912 199.815, 197.299 198.439, 213.340 190.324 C 226.132 183.852, 243.998 160.527, 251.568 140.415 C 257.465 124.748, 254.202 99.077, 244.206 82.500 C 238.465 72.978, 225.895 61.117, 217 56.827 C 197.284 47.320, 175.614 43.750, 163 47.930 M 87 65.706 C 84.361 66.671, 80.864 70.385, 78.795 74.421 C 75.918 80.034, 76.615 88.495, 80.359 93.404 C 83.098 96.996, 88.660 100.327, 93.800 101.456 C 96.485 102.046, 96.537 101.956, 98.663 93.059 C 99.844 88.113, 102.194 81.298, 103.885 77.915 L 106.958 71.764 104.015 69.014 C 100.219 65.468, 92.015 63.873, 87 65.706 M 248.559 70.103 C 246.392 70.623, 244.485 71.182, 244.321 71.346 C 244.157 71.509, 245.179 73.186, 246.592 75.072 C 253.165 83.846, 257.165 94.534, 259.741 110.203 L 261.500 120.906 266 118.898 C 276.706 114.122, 282.230 104.235, 280.051 93.750 C 276.686 77.560, 262.351 66.795, 248.559 70.103 M 131.239 94.677 C 126.437 97.009, 122.257 102.309, 120.527 108.261 C 118.310 115.885, 120.420 122, 126.695 126.137 C 130.273 128.497, 139.600 128.669, 142.791 126.434 C 149.076 122.032, 151.628 108.149, 147.460 101.035 C 143.902 94.964, 136.569 92.089, 131.239 94.677 M 206.401 99.858 C 196.265 104.578, 193.373 118.356, 200.843 126.339 C 204.799 130.567, 208.270 132, 214.550 132 C 219.612 132, 220.544 131.656, 223.510 128.690 C 229.310 122.890, 230.420 112.508, 226.016 105.266 C 222.282 99.127, 213.294 96.649, 206.401 99.858 M 131.878 109.368 C 130.580 112.217, 131.236 114.770, 133.490 115.635 C 135.950 116.579, 138.136 114.019, 137.801 110.585 C 137.398 106.451, 133.566 105.663, 131.878 109.368 M 208.440 112.451 C 206.564 115.314, 207.257 118.532, 210.074 120.040 C 211.634 120.875, 212.501 120.590, 214.507 118.584 C 217.490 115.601, 217.722 112.457, 215.066 111.035 C 212.025 109.408, 210.175 109.803, 208.440 112.451 M 173.815 132.759 C 165.853 133.050, 164.875 133.314, 162.065 135.939 C 155.947 141.655, 158.784 150.163, 167.750 152.983 C 171.339 154.112, 172 154.731, 172 156.960 C 172 160.665, 170.257 162, 165.422 162 C 162.241 162, 160.899 161.481, 159.800 159.825 C 158.852 158.398, 157.778 157.871, 156.678 158.293 C 154.480 159.137, 154.542 162.213, 156.814 165.018 C 159.196 167.960, 167.404 168.900, 171.583 166.710 C 174.378 165.246, 174.599 165.309, 178.240 168.598 C 180.311 170.469, 183.017 172.053, 184.253 172.117 C 186.502 172.234, 193.906 172.202, 195.173 172.070 C 195.544 172.032, 197.231 170.835, 198.923 169.411 C 202.256 166.607, 202.843 163.944, 200.548 162.040 C 198.841 160.623, 195 161.570, 195 163.407 C 195 166, 186.144 168.177, 183.500 166.235 C 181.571 164.818, 179.908 162.166, 179.032 159.111 C 178.183 156.153, 178.323 155.951, 182.503 154.102 C 187.681 151.811, 190 147.963, 190 141.660 C 190 136.839, 187.879 133.426, 184.500 132.808 C 183.400 132.607, 178.592 132.585, 173.815 132.759 M 283.946 162.861 C 281.501 164.434, 276.125 168.516, 272 171.930 C 263.998 178.555, 245.753 188.281, 235.097 191.604 C 231.753 192.647, 229.013 193.751, 229.009 194.059 C 229.004 194.366, 229.637 195.491, 230.416 196.559 C 231.660 198.263, 233.458 198.561, 245.166 199 C 286.694 200.557, 304.892 193.189, 304.978 174.784 C 305.038 161.914, 294.607 156, 283.946 162.861 M 213.264 197.071 C 209.283 199.053, 202.758 201.310, 198.764 202.087 C 185.446 204.678, 163.491 203.468, 149.750 199.385 C 148.346 198.968, 148 199.482, 148 201.982 C 148 205.828, 149.936 209.660, 153.661 213.191 C 156.738 216.107, 164.425 219.943, 167.264 219.978 C 168.234 219.990, 169.809 220.447, 170.764 220.994 C 171.719 221.541, 175.077 222.920, 178.227 224.058 C 181.377 225.196, 184.865 227.284, 185.978 228.699 C 190.601 234.576, 190.998 243.191, 186.885 248.419 C 184.193 251.842, 180.840 253.494, 173.500 255.015 C 168 256.154, 167.708 256.343, 170 257.277 C 173.799 258.825, 191.753 258.709, 197.500 257.100 C 207.473 254.307, 219.573 244.875, 224.282 236.223 C 227.905 229.567, 229.386 219.493, 228.028 210.743 C 227.050 204.441, 223.131 194.620, 221.269 193.805 C 220.846 193.620, 217.244 195.090, 213.264 197.071 M 139.303 197.697 C 135.398 201.602, 133.678 206.228, 133.212 214.085 C 132.644 223.668, 134.625 230.753, 139.755 237.480 C 149.075 249.700, 164.928 253.959, 178.754 247.956 C 183.636 245.836, 185.479 242.369, 184.500 237.149 C 183.482 231.724, 180.500 229.721, 168.161 226.173 C 155.712 222.593, 150.423 219.784, 146.728 214.788 C 143.498 210.421, 142.868 208.603, 142.127 201.500 L 141.500 195.500 139.303 197.697 M 90.077 238.589 C 87.192 241.016, 87 241.605, 87 248.037 C 87 252.612, 87.849 257.584, 89.548 262.963 C 93.748 276.257, 100.051 280.639, 114.500 280.307 C 127.936 279.998, 150.709 270.633, 159.213 261.919 C 160.837 260.254, 160.606 259.999, 154.713 256.949 C 151.296 255.182, 147.239 252.847, 145.697 251.762 C 143.241 250.033, 142.352 249.926, 138.505 250.895 C 136.090 251.503, 131.593 252, 128.512 252 C 123.897 252, 122.476 251.567, 120.455 249.545 C 119.105 248.195, 118 246.456, 118 245.680 C 118 243.286, 113.993 239.024, 110.285 237.475 C 108.344 236.664, 103.695 236, 99.955 236 C 94.097 236, 92.727 236.359, 90.077 238.589 M 220.726 250.420 L 214.952 255.749 224.726 264.233 C 240.224 277.687, 251.283 284.661, 259.733 286.312 C 267.753 287.878, 276.319 280.176, 279.004 268.982 C 280.431 263.034, 279.644 258.919, 276.326 254.976 C 273.194 251.253, 269.890 251.133, 263.187 254.500 C 260.449 255.875, 257.278 257, 256.140 257 C 252.946 257, 245.376 254.184, 235.641 249.376 C 230.769 246.969, 226.719 245.020, 226.641 245.045 C 226.564 245.070, 223.902 247.488, 220.726 250.420 M 51.644 327.250 C 50.872 328.488, 49.444 331.654, 48.470 334.287 C 46.286 340.194, 42.017 344, 37.578 344 C 33.080 344, 30.947 341.263, 29.606 333.771 C 28.524 327.723, 28.378 327.500, 25.492 327.500 L 22.500 327.500 22.231 350.250 L 21.962 373 24.874 373 C 26.607 373, 28.032 372.359, 28.393 371.418 C 28.727 370.548, 29 365.100, 29 359.311 C 29 349.661, 29.145 348.850, 30.750 349.555 C 35.297 351.553, 39.536 351.141, 45.222 348.148 L 50.944 345.136 51.222 358.818 C 51.498 372.387, 51.520 372.503, 53.887 372.837 C 55.200 373.023, 56.655 372.573, 57.122 371.837 C 58.359 369.885, 58.217 329.275, 56.965 326.934 C 55.585 324.356, 53.365 324.488, 51.644 327.250 M 99.568 327.711 C 98.185 329.201, 95.666 333.026, 93.968 336.211 C 92.271 339.395, 90.731 342, 90.546 342 C 90.361 342, 88.981 339.637, 87.478 336.750 C 83.088 328.311, 81.033 325.854, 78.653 326.195 C 75.098 326.704, 75.609 329.551, 81.175 340.258 C 86.477 350.456, 86.502 350.547, 87 361.500 C 87.497 372.433, 87.515 372.500, 90 372.500 C 92.493 372.500, 92.501 372.467, 93 361 C 93.478 350.007, 93.664 349.209, 97.214 342.903 C 99.256 339.274, 101.570 335.772, 102.356 335.120 C 104.946 332.970, 106.409 328.198, 104.999 326.499 C 103.271 324.417, 102.452 324.599, 99.568 327.711 M 129.239 326.666 C 126.895 327.496, 124.482 329.099, 123.877 330.229 C 123.165 331.560, 122.835 339.368, 122.940 352.365 C 123.111 373.502, 123.506 375.255, 127.494 372.568 C 129.179 371.433, 129.487 370.160, 129.421 364.608 C 129.377 360.974, 129.666 358, 130.062 358 C 131.516 358, 141.128 367.347, 142.599 370.191 C 143.795 372.503, 144.682 373.056, 146.807 372.811 C 148.888 372.571, 149.571 371.890, 149.810 369.816 C 150.059 367.659, 148.742 365.681, 143.091 359.733 L 136.062 352.333 139.912 350.170 C 142.030 348.979, 145.391 346.203, 147.381 344 C 152.178 338.691, 152.287 334.633, 147.750 330.258 C 142.154 324.859, 137.109 323.881, 129.239 326.666 M 181.774 326.963 C 180.401 328.043, 178.335 331.118, 177.183 333.797 C 174.328 340.432, 169.090 361.420, 168.765 367.525 C 168.512 372.270, 168.626 372.514, 171.215 372.813 C 174.209 373.158, 173.985 373.670, 176.055 361.750 L 177.226 355 181.363 355.100 C 189.404 355.293, 190.341 355.965, 191.743 362.542 C 192.441 365.819, 193.231 369.463, 193.498 370.640 C 194.506 375.091, 200 374.553, 200 370.003 C 200 366.212, 196.498 349.472, 193.867 340.687 C 191.191 331.752, 188.577 326.436, 186.461 325.623 C 184.329 324.805, 184.625 324.721, 181.774 326.963 M 217.529 326.614 C 216.688 327.455, 216 328.626, 216 329.216 C 216 329.807, 218.475 334.904, 221.500 340.543 C 226.541 349.942, 227 351.336, 227 357.259 C 227 367.766, 227.975 372.760, 230.137 373.326 C 233.109 374.103, 234 371.036, 234 360.026 C 234 348.882, 234.710 346.771, 242.141 335.805 C 246.288 329.685, 246.965 326.584, 244.373 325.590 C 242.242 324.772, 240.789 326.074, 236.856 332.327 C 235.066 335.172, 232.813 338.546, 231.849 339.824 L 230.096 342.147 226.101 334.201 C 221.868 325.782, 220.007 324.135, 217.529 326.614 M 275.637 326.465 C 269.645 328.601, 266.387 332.389, 264.479 339.441 C 261.526 350.348, 264.964 364.426, 272.033 370.374 C 274.652 372.578, 276.130 373, 281.232 373 C 286.975 373, 287.510 372.789, 290.945 369.178 C 301.953 357.607, 299.795 331.573, 287.400 326.394 C 283.285 324.674, 280.615 324.690, 275.637 326.465 M 332 325.784 C 325.556 326.556, 319.902 331.708, 317.985 338.555 C 315.977 345.726, 317.147 356.957, 320.601 363.671 C 324.399 371.054, 327.404 373.231, 333.793 373.231 C 342.683 373.231, 347.645 368.455, 350.553 357.099 C 351.685 352.683, 351.982 349.013, 351.513 345.261 C 349.681 330.596, 343.482 324.408, 332 325.784 M 130.603 332.834 C 130.242 333.418, 129.711 336.845, 129.423 340.448 C 128.796 348.304, 129.599 348.645, 137.734 343.980 C 143.553 340.642, 145.422 336.993, 142.704 334.276 C 140.835 332.406, 131.551 331.300, 130.603 332.834 M 275.784 333.738 C 272.046 336.056, 270.587 340.177, 270.709 348.077 C 270.821 355.337, 273.223 362.181, 276.761 365.320 C 279.623 367.859, 284.783 367.203, 287.147 364 C 292.627 356.575, 291.460 334.925, 285.455 332.621 C 282.622 331.534, 278.586 332, 275.784 333.738 M 328.768 333.968 C 325.143 336.819, 323.661 342.016, 324.226 349.891 C 325.258 364.268, 333.813 371.764, 340.338 364.010 C 344.783 358.727, 345.408 340.712, 341.335 335.237 C 338.626 331.594, 332.564 330.982, 328.768 333.968 M 182.087 340.019 C 179.085 346.998, 179.520 348.428, 184.759 348.807 C 187.091 348.977, 189 348.721, 189 348.239 C 189 346.606, 185.823 336.505, 185.055 335.696 C 184.636 335.254, 183.300 337.200, 182.087 340.019" stroke="none" fill="#7c4667" fill-rule="evenodd"/></svg>