<?xml version="1.0" standalone="no"?>
<!DOCTYPE svg PUBLIC "-//W3C//DTD SVG 20010904//EN"
 "http://www.w3.org/TR/2001/REC-SVG-20010904/DTD/svg10.dtd">
<svg version="1.0" xmlns="http://www.w3.org/2000/svg"
 width="360.000000pt" height="386.000000pt" viewBox="0 0 360.000000 386.000000"
 preserveAspectRatio="xMidYMid meet">

<g transform="translate(0.000000,386.000000) scale(0.100000,-0.100000)"
fill="#000000" stroke="none">
<path d="M1677 3440 c-48 -8 -339 -121 -430 -167 -26 -13 -65 -39 -86 -58 -45
-41 -54 -42 -84 -14 -75 73 -209 78 -280 12 -44 -42 -77 -118 -77 -181 0 -109
74 -196 194 -230 l59 -16 -6 -87 c-11 -154 17 -312 81 -449 42 -91 140 -193
250 -260 39 -25 72 -49 72 -53 0 -5 -11 -23 -24 -40 -53 -71 -61 -97 -61 -202
0 -88 3 -107 27 -157 15 -32 39 -73 53 -92 15 -20 24 -39 21 -44 -8 -14 -113
-25 -132 -14 -9 5 -28 31 -43 58 -36 68 -90 96 -192 102 -66 4 -85 1 -124 -18
-57 -27 -75 -61 -75 -138 0 -68 29 -192 59 -250 70 -136 237 -168 468 -90 l62
21 48 -25 c119 -65 233 -91 403 -90 170 0 318 40 420 112 38 27 44 26 100 -15
137 -100 253 -125 343 -72 53 31 87 83 112 170 27 93 1 175 -67 217 -43 26
-72 25 -138 -6 -40 -19 -65 -24 -93 -21 -47 6 -247 103 -247 120 0 6 10 41 21
77 17 53 20 85 17 172 l-3 107 205 5 c113 2 230 9 260 15 30 7 68 14 83 17 48
8 120 47 158 85 129 129 64 369 -101 369 -54 0 -115 -32 -224 -118 -48 -38
-131 -92 -185 -120 -97 -51 -239 -105 -253 -96 -4 3 24 41 63 86 118 137 237
350 254 455 13 81 12 79 76 103 73 26 139 83 169 146 24 48 28 142 11 202 -26
87 -113 187 -197 224 -55 24 -156 26 -209 4 l-37 -16 -58 53 c-140 130 -487
238 -663 207z m244 -49 c69 -16 217 -70 282 -103 116 -58 261 -232 307 -369
48 -142 65 -320 39 -414 -34 -125 -170 -345 -281 -459 -82 -83 -154 -124 -275
-157 -68 -19 -95 -21 -213 -16 -211 8 -287 34 -486 164 -148 96 -226 207 -270
383 -28 112 -25 351 6 480 31 128 59 189 116 251 59 62 104 89 231 139 54 21
135 54 179 74 119 53 223 61 365 27z m-911 -186 c14 -7 36 -24 48 -38 l24 -25
-30 -64 c-16 -34 -38 -97 -47 -138 -29 -125 -27 -122 -79 -106 -68 21 -107 47
-141 95 -26 37 -30 51 -29 104 1 69 17 107 62 151 48 45 127 54 192 21z m1625
-49 c99 -47 176 -155 183 -258 6 -77 -17 -135 -72 -186 -39 -36 -130 -81 -141
-70 -3 3 -10 40 -15 84 -19 150 -67 284 -134 373 -34 45 -33 56 7 69 56 18
118 13 172 -12z m371 -906 c63 -39 79 -158 34 -240 -28 -49 -98 -103 -158
-120 -100 -28 -291 -43 -445 -34 l-129 7 -19 31 c-10 17 -15 33 -11 37 4 3 39
16 77 29 130 42 297 136 387 216 109 97 191 120 264 74z m-754 -365 c79 -145
56 -350 -53 -469 -80 -88 -183 -132 -329 -143 -85 -6 -205 10 -195 26 2 5 28
11 56 14 108 13 164 65 163 150 -1 78 -24 113 -97 148 -34 16 -69 29 -78 29
-41 0 -152 43 -185 72 -45 39 -63 75 -66 129 -3 51 -13 50 127 19 193 -43 398
-26 535 44 36 18 72 33 80 32 8 -1 27 -24 42 -51z m-822 -23 c0 -51 29 -124
63 -160 31 -34 99 -66 192 -92 128 -36 161 -60 172 -124 8 -53 -12 -92 -61
-115 -94 -45 -240 -33 -329 27 -54 35 -112 114 -134 177 -20 61 -22 176 -4
229 15 43 78 119 92 110 5 -3 9 -26 9 -52z m-355 -353 c56 -16 95 -46 112 -88
24 -58 41 -71 91 -71 25 0 71 5 102 12 55 11 58 11 101 -19 24 -17 65 -39 90
-50 26 -12 49 -26 53 -31 7 -12 -70 -73 -144 -115 -139 -79 -316 -119 -426
-97 -115 24 -187 137 -200 315 -3 48 -1 78 8 94 29 53 122 75 213 50z m1420
-190 c54 -15 89 -14 128 6 59 31 87 35 119 19 89 -46 90 -184 3 -298 -49 -64
-141 -74 -242 -27 -84 40 -213 136 -335 250 l-37 34 66 62 67 61 95 -48 c53
-26 114 -53 136 -59z"/>
<path d="M1286 2880 c-95 -84 -100 -211 -10 -271 36 -24 111 -25 143 -3 53 37
77 156 47 228 -33 79 -118 100 -180 46z m94 -90 c24 -24 25 -48 4 -78 -31 -45
-97 -13 -86 43 4 23 36 55 54 55 5 0 17 -9 28 -20z"/>
<path d="M2042 2835 c-119 -100 -55 -284 99 -285 80 0 130 58 132 154 2 98
-54 156 -150 156 -40 0 -58 -5 -81 -25z m126 -77 c20 -20 14 -67 -13 -93 -29
-30 -49 -31 -75 -5 -41 41 -13 110 44 110 17 0 37 -5 44 -12z"/>
<path d="M1654 2510 c-29 -12 -54 -49 -54 -81 0 -37 31 -73 85 -98 40 -19 45
-25 39 -44 -9 -31 -24 -44 -60 -52 -26 -5 -37 -1 -59 19 -16 15 -32 26 -37 26
-16 0 -21 -31 -8 -55 24 -44 91 -58 155 -31 34 14 35 14 69 -20 29 -29 41 -34
80 -34 48 0 112 26 135 54 10 12 11 19 2 30 -10 12 -20 10 -65 -14 -35 -18
-63 -26 -80 -23 -30 6 -61 44 -70 88 -5 27 -2 32 26 45 66 30 99 125 62 178
-14 20 -23 22 -107 21 -51 0 -102 -4 -113 -9z"/>
<path d="M523 573 c-49 -135 -104 -187 -179 -169 -28 7 -63 72 -64 118 0 36
-10 58 -25 58 -22 0 -25 -26 -25 -231 0 -171 2 -200 15 -206 9 -3 19 -2 23 2
4 3 7 58 7 120 0 63 4 117 7 121 4 4 14 1 22 -5 25 -21 101 -15 146 10 22 12
40 26 40 31 0 4 7 8 15 8 13 0 15 -22 15 -140 0 -118 3 -142 15 -147 9 -3 19
-2 23 1 8 8 10 274 2 370 -5 69 -23 98 -37 59z"/>
<path d="M777 576 c-3 -8 18 -59 46 -113 52 -97 52 -99 57 -208 4 -94 7 -110
23 -113 15 -3 17 7 17 103 0 119 6 140 74 245 44 68 56 100 37 100 -12 0 -61
-62 -95 -122 -16 -27 -31 -48 -34 -48 -4 0 -18 21 -32 48 -58 113 -81 139 -93
108z"/>
<path d="M1287 573 c-22 -9 -39 -24 -42 -37 -3 -11 -4 -104 -3 -206 3 -157 5
-185 18 -185 12 0 16 17 18 78 2 42 7 77 12 77 18 0 115 -86 139 -123 24 -36
44 -46 56 -27 10 16 -21 63 -84 125 -34 33 -61 62 -61 66 0 3 18 14 39 24 45
20 106 79 116 113 14 49 -59 112 -130 111 -22 0 -57 -7 -78 -16z m118 -27 c43
-18 59 -46 44 -78 -14 -31 -96 -86 -134 -90 l-30 -3 0 85 c0 81 1 84 25 91 39
11 58 10 95 -5z"/>
<path d="M1806 558 c-27 -36 -77 -194 -101 -319 -15 -83 -14 -99 10 -99 9 0
17 24 25 73 21 121 19 119 92 111 35 -4 68 -11 74 -15 6 -5 17 -37 23 -72 18
-90 20 -97 42 -97 23 0 23 -3 3 101 -25 134 -62 266 -88 317 -21 41 -48 41
-80 0z m78 -109 c24 -85 19 -102 -31 -94 -72 12 -75 15 -68 43 4 15 16 49 27
75 29 66 48 59 72 -24z"/>
<path d="M2180 568 c0 -12 23 -63 50 -115 47 -87 50 -98 50 -166 0 -96 9 -147
26 -147 11 0 14 22 14 103 0 115 13 154 90 267 38 56 44 80 19 80 -5 0 -34
-38 -64 -85 -30 -47 -57 -85 -60 -85 -2 0 -21 30 -41 68 -55 100 -84 128 -84
80z"/>
<path d="M2745 576 c-62 -27 -95 -93 -95 -189 0 -92 24 -164 71 -210 38 -38
41 -39 94 -35 64 5 93 27 127 97 33 66 32 207 0 269 -39 74 -120 102 -197 68z
m114 -31 c42 -21 56 -66 56 -180 -1 -107 -14 -149 -57 -179 -35 -25 -67 -19
-103 17 -54 54 -79 171 -55 258 12 42 52 86 83 92 40 8 48 7 76 -8z"/>
<path d="M3275 571 c-63 -29 -90 -85 -90 -191 0 -73 4 -93 29 -143 33 -69 72
-97 133 -97 83 0 143 84 151 210 6 99 -10 155 -58 202 -32 33 -44 38 -81 38
-24 0 -62 -9 -84 -19z m135 -38 c37 -34 55 -118 45 -202 -9 -71 -20 -100 -53
-133 -66 -70 -151 0 -170 139 -14 107 11 182 71 208 48 21 73 18 107 -12z"/>
</g>
</svg>
